<svg xmlns="http://www.w3.org/2000/svg" viewBox="0 0 64 64" role="img" aria-label="World3-03">
  <rect width="64" height="64" rx="10" fill="#f7f7f4"/>
  <circle cx="32" cy="32" r="23" fill="#2f6f73"/>
  <path d="M11 34c7-8 13-11 20-9 5 1 9 5 14 4 3-1 6-4 8-7 2 4 3 8 3 12 0 13-11 24-24 24S8 47 8 34h3z" fill="#d9c27f"/>
  <path d="M18 23c5-7 11-11 18-13 10 2 18 10 19 20-4 1-8 1-12-1-8-4-13-7-25-6z" fill="#8fb8a5"/>
  <circle cx="32" cy="32" r="23" fill="none" stroke="#202124" stroke-width="2"/>
  <path d="M16 47c6-5 12-7 18-6 5 1 9 4 14 2" fill="none" stroke="#202124" stroke-width="2" stroke-linecap="round"/>
</svg>
