<svg xmlns="http://www.w3.org/2000/svg" viewBox="0 0 1600 900" preserveAspectRatio="xMidYMid slice">
  <defs>
    <linearGradient id="bg" x1="0" y1="0" x2="1" y2="1">
      <stop offset="0" stop-color="#0b1015"/>
      <stop offset=".55" stop-color="#162128"/>
      <stop offset="1" stop-color="#050608"/>
    </linearGradient>
    <radialGradient id="glow" cx="32%" cy="24%" r="62%">
      <stop offset="0" stop-color="#315f64" stop-opacity=".9"/>
      <stop offset=".5" stop-color="#182930" stop-opacity=".35"/>
      <stop offset="1" stop-color="#000000" stop-opacity="0"/>
    </radialGradient>
    <filter id="soft">
      <feGaussianBlur stdDeviation="2.2"/>
    </filter>
  </defs>
  <rect width="1600" height="900" fill="url(#bg)"/>
  <rect width="1600" height="900" fill="url(#glow)"/>
  <g opacity=".15" stroke="#d9c27f" stroke-width="2">
    <path d="M80 700 C240 650 360 560 480 430 C620 280 780 165 940 140 C1100 116 1280 190 1500 380" fill="none"/>
    <path d="M80 620 C260 590 430 520 590 400 C760 270 980 260 1160 360 C1280 430 1390 520 1520 660" fill="none"/>
  </g>
  <g opacity=".22" stroke="#b04a5a" stroke-width="3" filter="url(#soft)">
    <path d="M90 780 C230 710 340 620 460 480 C570 350 710 270 850 282 C1000 295 1160 420 1510 820" fill="none"/>
  </g>
  <g opacity=".18" stroke="#8fb8a5" stroke-width="2">
    <path d="M80 760 C270 740 490 700 675 625 C860 550 1030 560 1200 650 C1320 716 1420 760 1520 785" fill="none"/>
    <path d="M80 560 C260 610 430 630 610 590 C780 552 940 470 1100 390 C1240 320 1380 300 1520 330" fill="none"/>
  </g>
  <g opacity=".08" stroke="#e7ece8" stroke-width="1">
    <path d="M120 170H1480M120 310H1480M120 450H1480M120 590H1480M120 730H1480"/>
    <path d="M240 120V800M480 120V800M720 120V800M960 120V800M1200 120V800M1440 120V800"/>
  </g>
  <g opacity=".22">
    <circle cx="1160" cy="290" r="150" fill="#b04a5a"/>
    <circle cx="1160" cy="290" r="230" fill="none" stroke="#b04a5a" stroke-width="2"/>
  </g>
  <rect x="0" y="0" width="1600" height="900" fill="#000" opacity=".18"/>
</svg>
